<svg xmlns="http://www.w3.org/2000/svg" shape-rendering="geometricPrecision" text-rendering="geometricPrecision" image-rendering="optimizeQuality" fill-rule="evenodd" clip-rule="evenodd" viewBox="0 0 512 280.87"><path fill-rule="nonzero" d="M150.086 274.438v-94.765H85.765v94.765H0V6.432h85.765v94.77h64.321V6.432h85.76v268.006h-85.76zM419.809 103.45V70.221c-35.124-5.87-78.74-.379-113.205 6.858l-11.153-60.786C330.332 5.434 364.062 0 396.653 0c28.013 0 48.312 1.717 60.887 5.145 12.581 3.429 21.869 7.577 27.876 12.434 13.148 11.153 19.727 28.018 19.727 50.601 0 28.59-11.866 49.173-35.594 61.749v2.147C497.85 143.795 512 165.092 512 195.966c0 15.154-2.355 28.089-7.075 38.806-4.715 10.721-10.646 19.012-17.792 24.872-7.151 5.86-16.582 10.504-28.306 13.938-17.438 4.857-41.951 7.288-73.539 7.288s-63.247-3.717-94.982-11.147l12.008-68.074c40.497 9.805 76.198 12.565 117.495 7.288v-32.804l-73.757-7.288v-56.82l73.757-8.575z"/></svg>