<?xml version="1.0" encoding="utf-8"?>
<svg version="1.1" xmlns="http://www.w3.org/2000/svg" xmlns:xlink="http://www.w3.org/1999/xlink" 
     viewBox="0 0 100.16 122.88" width="512" height="273.292" preserveAspectRatio="xMidYMid meet">
<style type="text/css">.st0{fill-rule:evenodd;clip-rule:evenodd;}</style>
<path class="st0" d="M89.06,18.28v101c0,1.98-1.64,3.6-3.66,3.6H74.43c-2.01,0-3.66-1.62-3.66-3.6v-101H58.24v100.99 c0,1.98-1.64,3.6-3.66,3.6H43.62c-2.01,0-3.66-1.62-3.66-3.6V79l-0.39,0C17.72,79,0,61.28,0,39.44C0,14.12,20.45,0,43.75,0H96.5 c2.01,0,3.66,1.64,3.66,3.66v10.97c0,2.01-1.65,3.66-3.66,3.66H89.06L89.06,18.28z"/>
</svg>
