<?xml version="1.0" encoding="utf-8"?><svg version="1.1" id="Layer_1" xmlns="http://www.w3.org/2000/svg" xmlns:xlink="http://www.w3.org/1999/xlink" x="0px" y="0px" viewBox="0 0 122.88 99.09" style="enable-background:new 0 0 122.88 99.09" xml:space="preserve"><g><path d="M7.87,0h107.12c1.96,0,3.73,0.8,5.02,2.08c1.29,1.29,2.08,3.06,2.08,5.02v57.54c0,1.96-0.8,3.73-2.08,5.02 c-1.28,1.28-3.06,2.08-5.02,2.08H7.87c-1.96,0-3.73-0.8-5.02-2.08c-1.29-1.29-2.08-3.06-2.08-5.02V7.1c0-1.96,0.8-3.73,2.08-5.02 C4.14,0.8,5.92,0,7.87,0L7.87,0z M67.07,35.97L52.9,26.09v19.68L67.07,35.97L67.07,35.97z M51.52,17.33l22.86,15.95 c0.36,0.22,0.68,0.52,0.93,0.89c1,1.45,0.64,3.45-0.81,4.45L51.72,54.37c-0.55,0.45-1.26,0.72-2.03,0.72 c-1.77,0-3.21-1.44-3.21-3.21V19.95h0.01c0-0.63,0.19-1.27,0.58-1.83C48.08,16.67,50.08,16.32,51.52,17.33L51.52,17.33z M61.98,77.39c2.99,0,5.7,1.22,7.66,3.18l0.01,0.01l0.01-0.01c1.23,1.23,2.17,2.76,2.7,4.46h47.32c1.77,0,3.21,1.44,3.21,3.21 c0,1.77-1.44,3.21-3.21,3.21H72.35c-0.53,1.71-1.46,3.23-2.7,4.46c-1.96,1.96-4.68,3.18-7.67,3.18c-3,0-5.71-1.21-7.67-3.18 c-1.23-1.23-2.17-2.76-2.7-4.46H3.21C1.44,91.45,0,90.01,0,88.24c0-1.77,1.44-3.21,3.21-3.21h48.4c0.53-1.71,1.46-3.23,2.7-4.46 c0.07-0.07,0.14-0.13,0.21-0.19C56.46,78.53,59.09,77.39,61.98,77.39L61.98,77.39z M65.12,85.1c-0.8-0.8-1.91-1.29-3.14-1.29 c-1.17,0-2.23,0.44-3.02,1.17l-0.12,0.13c-0.8,0.8-1.3,1.91-1.3,3.14c0,1.22,0.5,2.33,1.3,3.14c0.8,0.8,1.91,1.3,3.14,1.3 c1.22,0,2.33-0.5,3.14-1.3c0.75-0.75,1.23-1.77,1.29-2.9c-0.01-0.08-0.01-0.15-0.01-0.23c0-0.08,0-0.16,0.01-0.23 C66.35,86.88,65.87,85.86,65.12,85.1L65.12,85.1L65.12,85.1z M114.99,6.42H7.87c-0.18,0-0.35,0.08-0.48,0.2 c-0.12,0.12-0.2,0.29-0.2,0.48v57.54c0,0.18,0.08,0.35,0.2,0.48c0.12,0.12,0.29,0.2,0.48,0.2h107.12c0.18,0,0.35-0.08,0.48-0.2 c0.12-0.12,0.2-0.29,0.2-0.48V7.1c0-0.18-0.08-0.35-0.2-0.48C115.35,6.5,115.18,6.42,114.99,6.42L114.99,6.42z"/></g></svg>