<svg xmlns="http://www.w3.org/2000/svg" shape-rendering="geometricPrecision" text-rendering="geometricPrecision" image-rendering="optimizeQuality" fill-rule="evenodd" clip-rule="evenodd" viewBox="0 0 512 406.656"><path fill-rule="nonzero" d="M92.263 0h327.474C470.498 0 512 41.501 512 92.262v222.131c0 50.752-41.511 92.263-92.263 92.263H92.263C41.502 406.656 0 365.154 0 314.393V92.262C0 41.493 41.493 0 92.263 0zm243.993 183.893v-13.655c-4.2-.7-10.994-1.05-20.378-1.05-9.387 0-21.081 1.471-35.089 4.411l-5.463-31.096c17.088-5.321 33.616-7.983 49.584-7.983 13.729 0 23.674.839 29.836 2.52 6.163 1.684 10.715 3.714 13.656 6.094 6.444 5.463 9.666 13.727 9.666 24.792 0 14.008-5.813 24.092-17.438 30.254v1.053c13.866 5.741 20.799 16.178 20.799 31.304 0 7.425-1.154 13.763-3.466 19.016-2.312 5.252-5.219 9.313-8.719 12.185-3.504 2.873-8.125 5.147-13.866 6.828-8.546 2.383-20.558 3.572-36.034 3.572-15.478 0-30.991-1.82-46.538-5.463l5.881-34.665c13.306 3.219 24.585 4.831 33.827 4.831 9.245 0 17.159-.42 23.742-1.259v-13.448l-36.138-3.572v-30.465l36.138-4.204zm-132.155 85.094v-46.433h-31.514v46.433h-42.022V137.671h42.022v46.433h31.514v-46.433h42.023v131.316h-42.023zM419.737 30.098H92.263c-34.165 0-62.165 28-62.165 62.164v222.131c0 34.154 28.011 62.164 62.165 62.164h327.474c34.148 0 62.165-28.016 62.165-62.164V92.262c0-34.153-28.011-62.164-62.165-62.164z"/></svg>