<svg xmlns="http://www.w3.org/2000/svg" shape-rendering="geometricPrecision" text-rendering="geometricPrecision" image-rendering="optimizeQuality" fill-rule="evenodd" clip-rule="evenodd" viewBox="0 0 512 406.656"><path fill-rule="nonzero" d="M92.263 0h327.474C470.498 0 512 41.501 512 92.262v222.131c0 50.752-41.511 92.263-92.263 92.263H92.263C41.502 406.656 0 365.154 0 314.393V92.262C0 41.493 41.493 0 92.263 0zm236.116 268.987v-21.009h-64.712v-26.265l32.356-84.042h74.378v74.168h13.656v36.139h-13.656v21.009h-42.022zm-2.101-99.799l-18.698 42.651h20.799v-42.651h-2.101zm-124.801 99.799v-46.433h-31.514v46.433H127.94V137.671h42.023v46.433h31.514v-46.433h42.022v131.316h-42.022zm218.26-238.889H92.263c-34.165 0-62.165 28-62.165 62.164v222.131c0 34.154 28.011 62.164 62.165 62.164h327.474c34.148 0 62.165-28.016 62.165-62.164V92.262c0-34.153-28.011-62.164-62.165-62.164z"/></svg>