<svg xmlns="http://www.w3.org/2000/svg" shape-rendering="geometricPrecision" text-rendering="geometricPrecision" image-rendering="optimizeQuality" fill-rule="evenodd" clip-rule="evenodd" viewBox="0 0 512 406.656"><path fill-rule="nonzero" d="M92.263 0h327.474C470.498 0 512 41.501 512 92.262v222.131c0 50.752-41.511 92.263-92.263 92.263H92.263C41.502 406.656 0 365.154 0 314.393V92.262C0 41.493 41.493 0 92.263 0zm244.098 231.589V214.99h-8.613c-4.624 0-7.843.526-9.666 1.576-1.82 1.052-2.73 3.466-2.73 7.248v16.599h8.614c4.621 0 7.843-.526 9.665-1.575 1.821-1.053 2.73-3.467 2.73-7.249zm40.97-27.84c2.801 6.233 4.203 13.974 4.203 23.216 0 9.245-1.402 16.986-4.203 23.216-2.801 6.234-6.933 10.892-12.396 13.974-5.463 3.08-11.241 5.182-17.332 6.302-6.094 1.121-13.343 1.681-21.746 1.681-21.152 0-35.718-5.463-43.703-16.389-7.982-10.925-11.975-28.363-11.975-52.313 0-12.188.91-22.272 2.73-30.257 1.823-7.983 5.113-14.987 9.876-21.01 9.103-11.765 26.894-17.649 53.366-17.649 5.324 0 12.362.595 21.115 1.786 8.756 1.192 15.234 2.418 19.437 3.677l-6.305 32.146c-11.346-1.962-22.167-2.941-32.461-2.941-10.295 0-17.825.629-22.585 1.892v10.715h10.505c8.403 0 15.652.56 21.746 1.68 6.091 1.121 11.869 3.22 17.332 6.302 5.463 3.083 9.595 7.738 12.396 13.972zm-173.335 65.238v-46.433h-31.514v46.433H130.46V137.671h42.022v46.433h31.514v-46.433h42.022v131.316h-42.022zM419.737 30.098H92.263c-34.165 0-62.165 28-62.165 62.164v222.131c0 34.154 28.011 62.164 62.165 62.164h327.474c34.148 0 62.165-28.016 62.165-62.164V92.262c0-34.153-28.011-62.164-62.165-62.164z"/></svg>