<svg xmlns="http://www.w3.org/2000/svg" shape-rendering="geometricPrecision" text-rendering="geometricPrecision" image-rendering="optimizeQuality" fill-rule="evenodd" clip-rule="evenodd" viewBox="0 0 512 275.824"><path fill-rule="nonzero" d="M150.843 275.824v-95.243H86.198v95.243H0V6.464h86.198v95.249h64.645V6.464h86.193v269.36h-86.193zM303.84 77.901l-11.204-61.526C328.838 5.462 364.897 0 400.809 0c14.365 0 26.362.433 35.988 1.293 9.625.86 19.607 3.019 29.95 6.464 10.344 3.447 18.534 8.191 24.566 14.223C505.107 35.769 512 56.888 512 85.333c0 28.444-8.043 49.42-24.133 62.925-16.09 13.499-49.996 29.014-101.713 46.545v12.064h121.539v68.957H286.599v-53.87c0-16.09 3.019-31.463 9.051-46.117 8.928-19.913 38.757-40.061 58.4-49.131 21.751-10.038 43.705-19.806 65.292-30.165V70.576c-39.24-4.372-76.974-1.792-115.502 7.325z"/></svg>