<svg xmlns="http://www.w3.org/2000/svg" shape-rendering="geometricPrecision" text-rendering="geometricPrecision" image-rendering="optimizeQuality" fill-rule="evenodd" clip-rule="evenodd" viewBox="0 0 512 273.292"><path fill-rule="nonzero" d="M149.459 266.887v-94.369H85.406v94.369H0V0h85.406v94.374h64.053V0h85.401v266.887h-85.401zm137.501-4.696l11.958-70.457c27.043 6.546 50.743 9.819 71.098 9.819 20.356 0 37.08-.852 50.173-2.562v-24.017c-29.545-3.152-80.863-3.576-103.977-18.898-12.659-8.392-19.004-23.417-19.004-45.049 0-3.131 1.422-40.14 4.272-111.027h194.29l-6.405 73.448-101.202-5.976v29.782C450.546 104.642 512 102.514 512 177.642c0 17.935-2.42 33.09-7.262 45.477-4.837 12.382-10.602 21.778-17.294 28.183-6.688 6.406-16.155 11.313-28.395 14.732-12.241 3.415-22.988 5.478-32.243 6.188-9.25.712-21.561 1.07-36.934 1.07-37.009 0-71.315-3.702-102.912-11.101z"/></svg>