<svg height='100px' width='100px'  fill="#2680eb" xmlns="http://www.w3.org/2000/svg" version="1.1" x="0px" y="0px" viewBox="0 0 100 100"><g transform="translate(0,-952.36218)"><path d="m 11.31235,970.12425 c 1.57769,2.8526 1.960249,6.0131 1.829259,8.3063 0.30209,-0.3629 0.60487,-0.7275 0.93658,-1.0958 0.53032,-6.2323 9.7956,-9.7267 14.13789,-8.8348 -2.89953,3.7077 -10.90445,7.729 -13.63077,8.7957 -0.236,0.4965 -0.46458,0.9864 -0.70263,1.4877 3.76858,-3.3004 6.09615,-1.6396 10.8656,-1.9484 -0.1412,3.1471 -4.82964,4.4003 -11.2611,2.769 -1.208609,2.6011 -2.313289,5.4099 -2.804859,9.0009 3.244659,-2.9465 5.128109,-3.3272 9.579589,-3.6154 -2.41927,2.4891 -6.2486,4.9252 -9.767009,5.0943 -0.13562,1.66 -0.12182,3.491 0.0549,5.5369 2.808699,-3.1138 6.486559,-6.2666 9.844989,-7.2256 3.86291,-1.0388 7.88581,-0.2219 11.51525,1.0912 1.81478,0.6568 3.52823,1.447 5.07848,2.3029 1.35557,-6.048 4.37588,-10.6092 8.33164,-13.8637 5.59928,-4.2767 12.05694,-6.9106 17.57893,-9.273 1.18925,-0.2482 2.50425,0.3143 3.15022,1.3469 0.64596,1.0325 0.5792,2.4655 -0.15986,3.4331 -2.2855,3.0839 -3.82404,6.5447 -3.24831,10.1265 14.03145,-2.1171 22.42281,-4.7105 26.96963,-9.2339 0.76498,-0.7722 1.96698,-1.0749 3.00459,-0.7562 1.03756,0.3187 1.86532,1.2443 2.06904,2.314 1.57438,8.1951 -2.10974,16.5686 -7.59199,23.1774 -4.23078,5.10035 -9.59443,9.23455 -15.2155,11.46225 0.68463,0.6846 1.20841,1.2356 1.83573,1.9088 l 21.36148,8.4103 c 0.99797,0.3832 1.75408,1.3391 1.89969,2.4016 0.14563,1.0625 -0.32525,2.1879 -1.18302,2.8274 l -12.93333,9.712 c -1.0938,0.8272 -2.76584,0.7615 -3.79188,-0.149 l -9.60809,-8.4869 c -11.32374,3.3844 -20.07795,4.4556 -27.41108,1.8854 -7.70492,-2.7007 -13.13742,-9.2472 -17.94294,-19.2319 -0.37987,-0.7712 -3.11807,-2.8363 -6.41676,-3.9234 -1.81724,-0.5989 -3.79258,-0.9138 -5.421109,-1.0419 0.34837,1.3088 0.73334,2.6772 1.198329,4.1255 l -3.9322595,-3.0981 c -0.0671,-0.3406 -0.10466,-0.6619 -0.16827,-0.9937 -1.53647,0.088 -3.05636,-0.4195 -3.64332,-1.5436 -0.61574,-1.2699 -0.18547,-2.9573 0.96231,-3.77415 0.51967,-0.3902 1.04064,-0.8651 1.56814,-1.3957 -0.41052,-3.3033 -0.4924,-6.108 -0.17535,-8.6539 -4.6704801,-2.7702 -5.9087701,-7.4701 -4.5644601,-10.0707 3.0281501,2.3858 4.0401101,4.0968 5.0503401,7.4077 0.66678,-2.5362 1.8692305,-4.8769 3.6602705,-7.2505 -3.9650805,-2.8226 -2.3033805,-6.7654 -0.90888,-9.463 z m 45.873789,7.6617 c -3.05189,1.4665 -5.84893,2.9745 -8.06671,4.7993 -3.94756,3.2478 -6.48853,7.2076 -6.92017,14.4256 -0.0661,1.091 -0.77418,2.1185 -1.76787,2.5652 -0.99369,0.44685 -2.22896,0.293 -3.08388,-0.3837 -1.65153,-1.3012 -4.52908,-2.9869 -7.4876,-4.0575 -2.95851,-1.0704 -5.98109,-1.4431 -7.91254,-0.9237 -2.88916,0.8758 -4.65725,2.8968 -6.49468,4.9933 1.36505,0.2693 2.73075,0.4911 4.10076,0.94265 3.8012,1.1925 7.97774,3.2081 9.93233,7.0359 4.49147,9.3322 8.82144,14.1531 14.53398,16.1553 5.71254,2.0022 13.60355,1.2657 25.30332,-2.3899 0.97363,-0.3117 2.10156,-0.08 2.87466,0.5905 l 9.0077,7.9341 6.62348,-4.9955 -16.91361,-6.652 c -0.43824,-0.1695 -0.83579,-0.4442 -1.1501,-0.7945 -1.21794,-1.3787 -3.9568,-3.7803 -5.77941,-6.1402 -0.63277,-0.8156 -0.80261,-1.9696 -0.43181,-2.9341 0.37083,-0.9643 1.26906,-1.7047 2.28366,-1.882 5.2846,-0.9029 11.92455,-5.1913 16.63511,-10.86995 3.28778,-3.9635 5.5072,-8.4849 6.22777,-12.7785 -6.49427,3.8207 -15.43339,5.8066 -27.90755,7.538 -1.42919,0.1968 -2.9262,-0.7983 -3.30326,-2.1961 -0.885,-3.6013 -1.00261,-7.1845 -0.30358,-9.9822 z m -35.95381,17.624 c 1.06672,-0.2869 2.10522,0.1315 2.3196,0.9346 0.21437,0.8029 -0.47659,1.6865 -1.5433,1.9734 -1.06671,0.2869 -2.10524,-0.1315 -2.31961,-0.9346 -0.21438,-0.803 0.47659,-1.6865 1.54331,-1.9734 z" style="text-indent:0;text-transform:none;direction:ltr;block-progression:tb;baseline-shift:baseline;color:#000000;enable-background:accumulate;" fill="#2680eb" fill-opacity="1" stroke="none" marker="none" visibility="visible" display="inline" overflow="visible"></path></g></svg>
