<svg id="Layer_1" data-name="Touching Toronto Logo" xmlns="http://www.w3.org/2000/svg" viewBox="0 0 58.85 11.68"><path d="M92.11,34.3a.76.76,0,0,1,.25-.58,1.89,1.89,0,0,1,.69-.39,4.73,4.73,0,0,1,1-.24c.39-.06.81-.1,1.26-.13s.9,0,1.38,0h2.72c.41,0,.78,0,1.11,0a6.8,6.8,0,0,0,.82-.1.6.6,0,0,0,.4-.22,1,1,0,0,1-.23.84,1.58,1.58,0,0,1-.8.44,4.82,4.82,0,0,1-1.22.14c-.46,0-1,0-1.48,0a.67.67,0,0,1,.15.59,2.52,2.52,0,0,1-.3.79,7,7,0,0,1-.63.93q-.41.5-.87,1c-.32.35-.64.7-1,1l-1,1.05c-.32.34-.62.67-.89,1a8,8,0,0,0-.66.86,2.36,2.36,0,0,0-.33.69.43.43,0,0,0,.11.47.79.79,0,0,1-.39-.67,2.46,2.46,0,0,1,.23-1,7,7,0,0,1,.67-1.19c.28-.43.6-.87.94-1.31s.7-.88,1.07-1.32l1-1.23c.31-.38.59-.73.81-1a3.43,3.43,0,0,0,.46-.75l-1.26-.13L95,33.63c-.39,0-.76,0-1.1-.05a4.66,4.66,0,0,0-.89.07,1.55,1.55,0,0,0-.62.22A.58.58,0,0,0,92.11,34.3Z" transform="translate(-92.11 -32.13)"/><path d="M99.93,36.72a1,1,0,0,1,.65.17.61.61,0,0,1,.22.45,1.5,1.5,0,0,1-.13.65,4.16,4.16,0,0,1-.4.74,5.08,5.08,0,0,1-.61.74,5.57,5.57,0,0,1-.73.65,3.89,3.89,0,0,1-.78.46,2,2,0,0,1-.77.17.92.92,0,0,1-.59-.17.85.85,0,0,1-.26-.46,1.83,1.83,0,0,1,0-.65,3,3,0,0,1,.3-.74,4.34,4.34,0,0,1,.52-.74,4,4,0,0,1,.71-.65,3.36,3.36,0,0,1,.86-.45A2.7,2.7,0,0,1,99.93,36.72Zm-2.67,3.85a1,1,0,0,0,.45-.15,5.43,5.43,0,0,0,.56-.42,6.56,6.56,0,0,0,.59-.59c.2-.22.39-.44.57-.67s.34-.46.48-.68a3.52,3.52,0,0,0,.32-.59.92.92,0,0,0,.09-.41c0-.11-.08-.16-.2-.16a.85.85,0,0,0-.44.16,3.55,3.55,0,0,0-.55.41,8.28,8.28,0,0,0-.6.59,7.44,7.44,0,0,0-.58.68c-.18.23-.34.45-.48.67a4,4,0,0,0-.32.59.84.84,0,0,0-.1.42Q97.07,40.57,97.26,40.57Z" transform="translate(-92.11 -32.13)"/><path d="M104.23,36.72a2,2,0,0,1,.74.11c.16.07.26.16.28.28a.58.58,0,0,1-.09.42,2.74,2.74,0,0,1-.35.51,5.46,5.46,0,0,1-.53.56c-.19.2-.39.38-.58.56l-.55.52a5.06,5.06,0,0,0-.41.43.74.74,0,0,0-.17.31c0,.07,0,.11.17.12a.75.75,0,0,0,.33-.07c.13-.06.27-.12.43-.21L104,40l.42-.29.31-.23.15-.11-.12.11-.3.26-.4.33a4.84,4.84,0,0,1-.46.33,3,3,0,0,1-.46.25.86.86,0,0,1-.38.1.64.64,0,0,1-.47-.13.42.42,0,0,1-.1-.35,1.33,1.33,0,0,1,.17-.51,4.53,4.53,0,0,1,.39-.58l-.7.66a6.76,6.76,0,0,1-.66.52,3,3,0,0,1-.56.32.61.61,0,0,1-.41,0,.41.41,0,0,1-.29-.28.93.93,0,0,1,.07-.47,3.79,3.79,0,0,1,.34-.59c.15-.21.31-.43.49-.65l.55-.65.52-.61c.15-.19.27-.36.36-.5a.67.67,0,0,0,.14-.34.85.85,0,0,1,.58.27.55.55,0,0,1,0,.46,2,2,0,0,1-.33.6,6.55,6.55,0,0,1-.56.66q-.31.34-.66.66c-.23.21-.43.41-.6.58s-.3.31-.39.42-.1.19-.05.21a.45.45,0,0,0,.34-.08,4,4,0,0,0,.53-.37c.2-.16.42-.35.65-.56s.46-.44.69-.67l.66-.7c.21-.23.4-.45.56-.64a2.8,2.8,0,0,0,.32-.5C104.4,36.82,104.36,36.75,104.23,36.72Z" transform="translate(-92.11 -32.13)"/><path d="M107.56,36.56a1.31,1.31,0,0,1,.71.16.61.61,0,0,1,.28.4.76.76,0,0,1-.07.48,1.14,1.14,0,0,1-.35.44,1.28,1.28,0,0,1-.55.26,1.18,1.18,0,0,1-.66-.07,2.33,2.33,0,0,0,.55-.43,2.53,2.53,0,0,0,.38-.47A1.06,1.06,0,0,0,108,37q0-.15-.06-.15a.75.75,0,0,0-.38.16,3.44,3.44,0,0,0-.53.42c-.19.18-.39.38-.59.6a8.88,8.88,0,0,0-.55.7,5.3,5.3,0,0,0-.44.69,2.08,2.08,0,0,0-.23.6.55.55,0,0,0,.07.43.56.56,0,0,0,.46.16,1.56,1.56,0,0,0,.69-.19,5.46,5.46,0,0,0,.67-.42,6.58,6.58,0,0,0,.71-.61,5.44,5.44,0,0,1-.65.7,4.08,4.08,0,0,1-.68.48,1.7,1.7,0,0,1-.82.21,1.08,1.08,0,0,1-.66-.18.94.94,0,0,1-.34-.47,1.78,1.78,0,0,1-.06-.67,3.17,3.17,0,0,1,.2-.76,3.43,3.43,0,0,1,.42-.77,3.24,3.24,0,0,1,.62-.66,2.83,2.83,0,0,1,.78-.48A2.26,2.26,0,0,1,107.56,36.56Z" transform="translate(-92.11 -32.13)"/><path d="M108.17,40.75a.76.76,0,0,1-.36-.55,1.73,1.73,0,0,1,.11-.78,4.75,4.75,0,0,1,.46-.94c.22-.35.46-.7.73-1.07s.57-.74.89-1.11.62-.75.94-1.1l.89-1c.28-.33.53-.63.73-.9a7.19,7.19,0,0,0,.49-.7c.11-.2.16-.34.12-.44a1.52,1.52,0,0,1,.75.41.71.71,0,0,1,.11.59,1.94,1.94,0,0,1-.39.73,10.14,10.14,0,0,1-.74.84c-.29.29-.62.6-1,.92l-1.06,1c-.35.33-.69.66-1,1a10.37,10.37,0,0,0-.84,1l.62-.55.68-.53c.23-.17.46-.32.68-.47a5.26,5.26,0,0,1,.65-.35,2.22,2.22,0,0,1,.55-.16.63.63,0,0,1,.42.07.39.39,0,0,1,.21.33.9.9,0,0,1-.14.46,3.45,3.45,0,0,1-.37.53l-.49.59c-.18.2-.35.4-.51.61a3.56,3.56,0,0,0-.41.6,1.45,1.45,0,0,0-.19.55.58.58,0,0,0,.12.47,1.91,1.91,0,0,1-.73-.58.9.9,0,0,1-.17-.59,1.29,1.29,0,0,1,.25-.6,3.42,3.42,0,0,1,.51-.58,7.84,7.84,0,0,1,.61-.54c.21-.16.39-.32.56-.46a2.42,2.42,0,0,0,.36-.36c.08-.11.08-.2,0-.26s-.19,0-.4.06a5.72,5.72,0,0,0-.75.4c-.28.18-.59.39-.92.64s-.65.51-.94.77a9.44,9.44,0,0,0-.77.8,2.63,2.63,0,0,0-.45.73A.53.53,0,0,0,108.17,40.75Z" transform="translate(-92.11 -32.13)"/><path d="M113.88,36.72a2,2,0,0,1,.76.11.44.44,0,0,1,.28.29.63.63,0,0,1-.12.43,3.09,3.09,0,0,1-.38.52,7.08,7.08,0,0,1-.54.57l-.6.57c-.2.18-.37.36-.53.52a2.47,2.47,0,0,0-.36.43c-.08.12-.11.22-.08.29s.13.11.31.11a1.17,1.17,0,0,0,.35-.06,3.43,3.43,0,0,0,.38-.13,3.6,3.6,0,0,0,.39-.2c.14-.07.26-.15.38-.22a9.09,9.09,0,0,0,.86-.61,7.51,7.51,0,0,1-.81.7l-.38.26-.42.22a3.66,3.66,0,0,1-.43.15,1.72,1.72,0,0,1-.44.06,1.19,1.19,0,0,1-.58-.11.37.37,0,0,1-.19-.3.92.92,0,0,1,.11-.45,3.66,3.66,0,0,1,.32-.55c.13-.19.28-.39.44-.59s.33-.41.5-.6l.46-.54c.14-.17.25-.32.34-.45a.86.86,0,0,0,.13-.3Q114,36.72,113.88,36.72Zm2.32-3.06a2.13,2.13,0,0,1,.63.27.45.45,0,0,1,.22.29.39.39,0,0,1-.09.31,2.84,2.84,0,0,1-.3.31c-.13.1-.27.19-.42.29l-.42.27a2.44,2.44,0,0,0-.32.23c-.09.07-.14.14-.14.19a.31.31,0,0,1-.16-.29.89.89,0,0,1,.11-.39,2.61,2.61,0,0,1,.27-.44l.32-.44c.1-.13.18-.25.25-.36S116.23,33.71,116.2,33.66Z" transform="translate(-92.11 -32.13)"/><path d="M114.64,40.75a.93.93,0,0,1-.34-.47,1.09,1.09,0,0,1,0-.54,2.18,2.18,0,0,1,.23-.59,4.05,4.05,0,0,1,.36-.59l.4-.57a6.13,6.13,0,0,0,.36-.51,2.09,2.09,0,0,0,.21-.43.3.3,0,0,0,0-.31l.43-.08a1.27,1.27,0,0,1,.38,0,.31.31,0,0,1,.24.12c0,.06,0,.16,0,.3a2.41,2.41,0,0,1-.35.56,8.37,8.37,0,0,1-.78.88c.26-.25.53-.49.82-.73a8.5,8.5,0,0,1,.83-.62,3.69,3.69,0,0,1,.75-.37.66.66,0,0,1,.56,0,.38.38,0,0,1,.2.32,1,1,0,0,1-.13.43,3.34,3.34,0,0,1-.35.51l-.48.56-.48.58a3.22,3.22,0,0,0-.39.57,1.27,1.27,0,0,0-.19.52.61.61,0,0,0,.12.45,1.91,1.91,0,0,1-.7-.55.89.89,0,0,1-.16-.57,1.27,1.27,0,0,1,.24-.57,4.84,4.84,0,0,1,.48-.55c.19-.18.39-.35.59-.51s.38-.3.53-.44a2.28,2.28,0,0,0,.35-.35c.07-.1.08-.18,0-.24s-.17,0-.36.07a5,5,0,0,0-.65.38q-.37.26-.81.6c-.29.24-.56.47-.82.72l-.42.45c-.14.14-.26.28-.38.42a2.21,2.21,0,0,0-.35.62A.58.58,0,0,0,114.64,40.75Z" transform="translate(-92.11 -32.13)"/><path d="M122.33,37.8c-.11,0-.25.07-.41.26a8.4,8.4,0,0,0-.54.78c-.21.32-.43.69-.68,1.09s-.51.82-.79,1.23-.57.8-.88,1.17a5.62,5.62,0,0,1-1,.93,2.77,2.77,0,0,1-1,.5,1.7,1.7,0,0,1-1.08-.1.94.94,0,0,1-.5-.39.72.72,0,0,1-.1-.49.85.85,0,0,1,.21-.45A1.09,1.09,0,0,1,116,42a1.11,1.11,0,0,1,.58-.07,1.19,1.19,0,0,1,.64.29.51.51,0,0,0-.35,0,1.14,1.14,0,0,0-.38.16,1.27,1.27,0,0,0-.34.27,1.08,1.08,0,0,0-.22.32.59.59,0,0,0-.06.31.33.33,0,0,0,.19.23,1,1,0,0,0,.66.11,1.67,1.67,0,0,0,.65-.33,3.92,3.92,0,0,0,.63-.65q.32-.4.63-.87c.21-.32.42-.64.63-1s.42-.67.63-1c-.14.13-.27.24-.4.34a1.87,1.87,0,0,1-.37.23,1.15,1.15,0,0,1-.34.09.64.64,0,0,1-.3-.08.56.56,0,0,1-.27-.42,1.5,1.5,0,0,1,0-.62,2.41,2.41,0,0,1,.3-.72,3.67,3.67,0,0,1,.52-.74,4.07,4.07,0,0,1,.72-.65,3.25,3.25,0,0,1,.86-.46,2.27,2.27,0,0,1,.76-.15,1.14,1.14,0,0,1,.58.1.67.67,0,0,1,.34.32.68.68,0,0,1,0,.51.76.76,0,0,0,0-.27.48.48,0,0,0-.17-.18.68.68,0,0,0-.35-.07,1.57,1.57,0,0,0-.64.22,4.64,4.64,0,0,0-.72.52,7.45,7.45,0,0,0-.7.68,7,7,0,0,0-.57.73,2.67,2.67,0,0,0-.32.63c-.06.19,0,.33,0,.41s.12,0,.24,0a3.23,3.23,0,0,0,.42-.29c.15-.13.32-.28.49-.45a5.94,5.94,0,0,0,.49-.52,4.86,4.86,0,0,1,.46-.53,2.72,2.72,0,0,1,.46-.39,1.32,1.32,0,0,1,.46-.2A.94.94,0,0,1,122.33,37.8Z" transform="translate(-92.11 -32.13)"/><path d="M125.61,34.3a.79.79,0,0,1,.25-.58,1.86,1.86,0,0,1,.7-.39,4.5,4.5,0,0,1,1-.24c.4-.06.81-.1,1.26-.13s.91,0,1.38,0h2.72c.42,0,.79,0,1.12,0a6.6,6.6,0,0,0,.81-.1.63.63,0,0,0,.41-.22,1,1,0,0,1-.23.84,1.67,1.67,0,0,1-.8.44A4.87,4.87,0,0,1,133,34c-.47,0-1,0-1.49,0a.67.67,0,0,1,.15.59,2.26,2.26,0,0,1-.29.79,7.1,7.1,0,0,1-.64.93q-.39.5-.87,1c-.31.35-.64.7-1,1l-1,1.05c-.32.34-.61.67-.88,1a7,7,0,0,0-.67.86,2.36,2.36,0,0,0-.33.69.45.45,0,0,0,.11.47.78.78,0,0,1-.38-.67,2.27,2.27,0,0,1,.22-1,7,7,0,0,1,.67-1.19c.29-.43.6-.87,1-1.31s.7-.88,1.06-1.32l1-1.23c.32-.38.59-.73.82-1a3.31,3.31,0,0,0,.45-.75l-1.25-.13-1.22-.11c-.39,0-.75,0-1.09-.05a4.77,4.77,0,0,0-.9.07,1.61,1.61,0,0,0-.62.22A.58.58,0,0,0,125.61,34.3Z" transform="translate(-92.11 -32.13)"/><path d="M133.44,36.72a1,1,0,0,1,.64.17.58.58,0,0,1,.22.45,1.48,1.48,0,0,1-.12.65,4.24,4.24,0,0,1-.41.74,5.73,5.73,0,0,1-.6.74,6.3,6.3,0,0,1-.73.65,4.26,4.26,0,0,1-.79.46,2,2,0,0,1-.77.17.89.89,0,0,1-.58-.17.74.74,0,0,1-.26-.46,1.46,1.46,0,0,1,0-.65,3,3,0,0,1,.29-.74,5,5,0,0,1,.52-.74,4.39,4.39,0,0,1,.71-.65,3.42,3.42,0,0,1,.87-.45A2.66,2.66,0,0,1,133.44,36.72Zm-2.68,3.85a.92.92,0,0,0,.45-.15,4.53,4.53,0,0,0,.56-.42,6.62,6.62,0,0,0,.6-.59c.2-.22.39-.44.57-.67l.48-.68a4.44,4.44,0,0,0,.32-.59.77.77,0,0,0,.08-.41c0-.11-.08-.16-.2-.16a.88.88,0,0,0-.44.16,4.09,4.09,0,0,0-.55.41c-.19.18-.39.37-.6.59a7.33,7.33,0,0,0-.57.68c-.18.23-.34.45-.48.67a4.13,4.13,0,0,0-.33.59.82.82,0,0,0-.09.42C130.57,40.52,130.64,40.57,130.76,40.57Z" transform="translate(-92.11 -32.13)"/><path d="M137.12,36.32a1.63,1.63,0,0,0-.36.52.63.63,0,0,0-.07.22.45.45,0,0,0,0,.23.42.42,0,0,0,.11.22.75.75,0,0,0,.26.18.21.21,0,0,1,.1.27,1.72,1.72,0,0,1-.21.45c-.12.17-.26.36-.43.57s-.35.41-.53.62l-.51.61a4.41,4.41,0,0,0-.39.54.88.88,0,0,0-.14.39c0,.11.07.17.21.19a.54.54,0,0,1-.44-.19.59.59,0,0,1-.07-.43,2.16,2.16,0,0,1,.2-.59c.11-.21.23-.44.36-.66l.43-.68.38-.6a3.46,3.46,0,0,0,.24-.45c0-.12,0-.2,0-.23l-.1,0-.08-.05c-.25.35-.45.66-.61.93L135,39a3.62,3.62,0,0,1-.38.5,1.86,1.86,0,0,1-.41.33,1.63,1.63,0,0,1-.54.17,4.25,4.25,0,0,1-.77,0,1.75,1.75,0,0,0,.56-.24,5.77,5.77,0,0,0,.59-.47c.19-.18.39-.38.58-.59l.53-.61c.16-.2.3-.38.42-.55l.28-.38a.57.57,0,0,1-.14-.3.54.54,0,0,1,.08-.28.91.91,0,0,1,.24-.24,1.26,1.26,0,0,1,.33-.16,1.17,1.17,0,0,1,.37,0A.88.88,0,0,1,137.12,36.32Zm-1.84,5h0Z" transform="translate(-92.11 -32.13)"/><path d="M140.19,36.72a.94.94,0,0,1,.64.17.62.62,0,0,1,.23.45,1.5,1.5,0,0,1-.13.65,4.24,4.24,0,0,1-.41.74,5.73,5.73,0,0,1-.6.74,6.3,6.3,0,0,1-.73.65,4.26,4.26,0,0,1-.79.46,2,2,0,0,1-.76.17.9.9,0,0,1-.59-.17.79.79,0,0,1-.26-.46,1.46,1.46,0,0,1,0-.65,3,3,0,0,1,.3-.74,3.84,3.84,0,0,1,.52-.74,3.94,3.94,0,0,1,.7-.65,3.59,3.59,0,0,1,.87-.45A2.7,2.7,0,0,1,140.19,36.72Zm-2.67,3.85a.92.92,0,0,0,.44-.15,3.89,3.89,0,0,0,.56-.42,6.62,6.62,0,0,0,.6-.59c.2-.22.39-.44.57-.67s.34-.46.48-.68a3.52,3.52,0,0,0,.32-.59.92.92,0,0,0,.09-.41.18.18,0,0,0-.21-.16.82.82,0,0,0-.43.16,3.59,3.59,0,0,0-.56.41c-.19.18-.39.37-.6.59s-.39.44-.57.68-.34.45-.48.67a5.42,5.42,0,0,0-.33.59.93.93,0,0,0-.09.42Q137.32,40.57,137.52,40.57Z" transform="translate(-92.11 -32.13)"/><path d="M140.85,40.75a.93.93,0,0,1-.34-.47,1.09,1.09,0,0,1,0-.54,2.51,2.51,0,0,1,.22-.59c.11-.2.23-.4.36-.59l.41-.57a6.13,6.13,0,0,0,.36-.51,2.09,2.09,0,0,0,.21-.43.33.33,0,0,0,0-.31l.43-.08a1.27,1.27,0,0,1,.38,0,.31.31,0,0,1,.24.12c.05.06,0,.16,0,.3a2.81,2.81,0,0,1-.35.56,9.72,9.72,0,0,1-.78.88c.26-.25.53-.49.81-.73a10,10,0,0,1,.84-.62,3.4,3.4,0,0,1,.74-.37.66.66,0,0,1,.56,0,.36.36,0,0,1,.2.32,1,1,0,0,1-.12.43,3.46,3.46,0,0,1-.36.51c-.15.18-.3.37-.47.56s-.33.38-.48.58a3.22,3.22,0,0,0-.39.57,1.27,1.27,0,0,0-.19.52.61.61,0,0,0,.12.45,1.91,1.91,0,0,1-.7-.55.83.83,0,0,1-.16-.57,1.17,1.17,0,0,1,.24-.57,3.44,3.44,0,0,1,.48-.55,7.19,7.19,0,0,1,.59-.51c.2-.16.38-.3.53-.44a2.28,2.28,0,0,0,.35-.35q.1-.15,0-.24c-.05,0-.17,0-.35.07a4.42,4.42,0,0,0-.65.38q-.37.26-.81.6c-.29.24-.57.47-.83.72l-.41.45a4.81,4.81,0,0,0-.38.42,2.21,2.21,0,0,0-.35.62A.58.58,0,0,0,140.85,40.75Z" transform="translate(-92.11 -32.13)"/><path d="M145.64,36.33a1.33,1.33,0,0,1,.61-.4,5.28,5.28,0,0,1,.91-.22l.51-.65.39-.57a3.62,3.62,0,0,0,.25-.45.53.53,0,0,0,.05-.31,1.14,1.14,0,0,1,.5.29.6.6,0,0,1,.16.42,1.12,1.12,0,0,1-.12.53,4,4,0,0,1-.34.63l.84,0,.73,0a4.63,4.63,0,0,0,.55-.1.46.46,0,0,0,.28-.18,1.45,1.45,0,0,1-.46.64,1.63,1.63,0,0,1-.66.28,2.57,2.57,0,0,1-.79,0c-.28,0-.57-.06-.85-.1-.25.32-.54.66-.85,1l-.94,1c-.31.34-.61.68-.89,1a9.42,9.42,0,0,0-.7.93,2.74,2.74,0,0,0-.37.79.61.61,0,0,0,.11.58.84.84,0,0,1-.4-.58,1.63,1.63,0,0,1,.07-.8,4.85,4.85,0,0,1,.43-1c.2-.34.42-.69.68-1.05s.53-.71.81-1.07l.82-1a3,3,0,0,0-.75.06A1.15,1.15,0,0,0,145.64,36.33Z" transform="translate(-92.11 -32.13)"/><path d="M149.92,36.72a1,1,0,0,1,.65.17.61.61,0,0,1,.22.45,1.5,1.5,0,0,1-.13.65,3.6,3.6,0,0,1-.4.74,5.73,5.73,0,0,1-.6.74,6.38,6.38,0,0,1-.74.65,3.89,3.89,0,0,1-.78.46,2,2,0,0,1-.77.17.94.94,0,0,1-.59-.17.85.85,0,0,1-.26-.46,1.64,1.64,0,0,1,0-.65,2.64,2.64,0,0,1,.29-.74,4.34,4.34,0,0,1,.52-.74,4.39,4.39,0,0,1,.71-.65,3.36,3.36,0,0,1,.86-.45A2.73,2.73,0,0,1,149.92,36.72Zm-2.67,3.85a1,1,0,0,0,.45-.15,4.53,4.53,0,0,0,.56-.42,6.62,6.62,0,0,0,.6-.59,8.64,8.64,0,0,0,.56-.67c.18-.24.34-.46.48-.68a3.52,3.52,0,0,0,.32-.59.71.71,0,0,0,.09-.41c0-.11-.08-.16-.2-.16a.85.85,0,0,0-.44.16,3.55,3.55,0,0,0-.55.41c-.2.18-.39.37-.6.59a7.44,7.44,0,0,0-.58.68c-.17.23-.33.45-.48.67a4,4,0,0,0-.32.59,1,1,0,0,0-.1.42Q147.06,40.57,147.25,40.57Z" transform="translate(-92.11 -32.13)"/></svg>
