<svg xmlns="http://www.w3.org/2000/svg" shape-rendering="geometricPrecision" text-rendering="geometricPrecision" image-rendering="optimizeQuality" fill-rule="evenodd" clip-rule="evenodd" viewBox="0 0 512 406.656"><path fill-rule="nonzero" d="M92.263 0h327.474C470.498 0 512 41.501 512 92.262v222.131c0 50.749-41.513 92.263-92.263 92.263H92.263C41.502 406.656 0 365.154 0 314.393V92.262C0 41.493 41.493 0 92.263 0zm187.056 175.385l-5.463-31.307c17.648-5.32 35.228-7.982 52.737-7.982 7.004 0 12.851.21 17.543.631 4.693.418 9.561 1.471 14.603 3.151 5.042 1.681 9.034 3.993 11.975 6.933 6.726 6.723 10.087 17.017 10.087 30.886 0 13.866-3.922 24.092-11.768 30.676-7.843 6.583-24.371 14.145-49.583 22.69v5.884h59.249v33.616H270.916V244.3c0-7.845 1.47-15.339 4.41-22.482 1.823-4.061 6.234-8.964 13.238-14.708 3.782-3.222 8.858-6.302 15.234-9.245a4758.118 4758.118 0 0118.069-8.298c5.67-2.591 10.257-4.726 13.761-6.407v-11.347c-6.305-.699-12.117-1.049-17.438-1.049-12.888 0-25.844 1.538-38.871 4.621zm-74.586 95.178V224.13h-31.514v46.433h-42.023V139.247h42.023v46.433h31.514v-46.433h42.022v131.316h-42.022zM419.737 30.098H92.263c-34.165 0-62.165 28-62.165 62.164v222.131c0 34.154 28.011 62.164 62.165 62.164h327.474c34.148 0 62.165-28.016 62.165-62.164V92.262c0-34.153-28.011-62.164-62.165-62.164z"/></svg>