<svg xmlns="http://www.w3.org/2000/svg" shape-rendering="geometricPrecision" text-rendering="geometricPrecision" image-rendering="optimizeQuality" fill-rule="evenodd" clip-rule="evenodd" viewBox="0 0 512 406.656"><path fill-rule="nonzero" d="M92.263 0h327.474C470.498 0 512 41.501 512 92.262v222.131c0 50.752-41.511 92.263-92.263 92.263H92.263C41.502 406.656 0 365.154 0 314.393V92.262C0 41.493 41.493 0 92.263 0zm178.968 265.1l5.884-34.665c13.306 3.219 24.968 4.831 34.981 4.831 10.015 0 18.245-.421 24.689-1.26v-10.508l-15.76-1.68c-17.367-1.82-29.168-4.798-35.402-8.93-6.233-4.132-9.35-11.52-9.35-22.164 0-1.541.703-19.75 2.102-54.628h95.598l-3.151 36.138-49.797-2.94v10.715l12.396 1.47c18.351 2.241 31.028 6.757 38.029 13.551 7.005 6.794 10.505 16.283 10.505 28.468 0 8.827-1.188 16.284-3.571 22.378-2.381 6.094-5.216 10.715-8.509 13.866-3.29 3.154-7.948 5.568-13.971 7.249-6.023 1.68-11.31 2.695-15.863 3.048-4.553.35-10.61.524-18.174.524-18.209 0-35.089-1.82-50.636-5.463zm-67.653 2.312v-46.433h-31.514v46.433h-42.022V136.096h42.022v46.433h31.514v-46.433H245.6v131.316h-42.022zM419.737 30.098H92.263c-34.165 0-62.165 28-62.165 62.164v222.131c0 34.154 28.011 62.164 62.165 62.164h327.474c34.148 0 62.165-28.016 62.165-62.164V92.262c0-34.153-28.011-62.164-62.165-62.164z"/></svg>